<?xml version="1.0" encoding="UTF-8" standalone="no"?>
<!-- Created with Inkscape (http://www.inkscape.org/) -->

<svg
   width="256"
   height="256"
   viewBox="0 0 256 256"
   version="1.1"
   id="svg1"
   xml:space="preserve"
   inkscape:version="1.4.2 (ebf0e940d0, 2025-05-08)"
   sodipodi:docname="icon.svg"
   xmlns:inkscape="http://www.inkscape.org/namespaces/inkscape"
   xmlns:sodipodi="http://sodipodi.sourceforge.net/DTD/sodipodi-0.dtd"
   xmlns="http://www.w3.org/2000/svg"
   xmlns:svg="http://www.w3.org/2000/svg"><sodipodi:namedview
     id="namedview1"
     pagecolor="#ffffff"
     bordercolor="#000000"
     borderopacity="0.25"
     inkscape:showpageshadow="2"
     inkscape:pageopacity="0.0"
     inkscape:pagecheckerboard="0"
     inkscape:deskcolor="#d1d1d1"
     inkscape:document-units="px"
     showguides="true"
     inkscape:zoom="1.7402142"
     inkscape:cx="188.48254"
     inkscape:cy="125.27193"
     inkscape:window-width="1920"
     inkscape:window-height="1011"
     inkscape:window-x="0"
     inkscape:window-y="0"
     inkscape:window-maximized="1"
     inkscape:current-layer="layer1" /><defs
     id="defs1" /><g
     inkscape:label="Camada 1"
     inkscape:groupmode="layer"
     id="layer1"><rect
       style="fill:#2a5286;fill-opacity:1;stroke:none;stroke-width:1;stroke-linecap:round;stroke-linejoin:round;stroke-opacity:1"
       id="rect14"
       width="256"
       height="256"
       x="0"
       y="0" /><path
       id="rect2"
       style="fill:#8997b2;fill-opacity:1;stroke-width:0.999994;stroke-linecap:round"
       d="m 42.910128,22.861737 c -4.759056,0 -8.592526,3.827024 -8.592526,8.58371 V 203.55019 c 0,4.75668 3.83347,8.58371 8.592526,8.58371 H 165.24598 c 4.75906,0 8.59253,-3.82703 8.59253,-8.58371 v -1.27804 H 51.910739 c -4.759056,0 -8.587998,-3.82701 -8.587998,-8.58371 V 22.861737 Z" /><path
       id="rect4"
       style="fill:#eaeff5;fill-opacity:1;stroke-width:0.999994;stroke-linecap:round"
       d="m 51.915266,12.999987 c -4.759056,0 -8.592525,3.827025 -8.592525,8.583711 V 193.68844 c 0,4.7567 3.833469,8.58371 8.592525,8.58371 H 174.2466 c 4.75907,0 8.59252,-3.82701 8.59252,-8.58371 V 40.382657 L 155.1798,12.999987 Z m 123.342494,0.05892 c 1.32754,0.154307 2.56201,0.606544 3.63198,1.291634 -1.06971,-0.685459 -2.30446,-1.137222 -3.63198,-1.291634 z" /><path
       id="rect3"
       style="fill:#bbc4d3;fill-opacity:1;stroke-width:0.999994;stroke-linecap:round"
       d="M 182.83912,40.382657 155.1798,12.999987 v 18.798959 c 0,4.756686 3.83344,8.583711 8.59252,8.583711 z" /><g
       id="g12"
       style="fill:#1b2a45;fill-opacity:1;stroke-width:0.43085"
       transform="matrix(2.3215701,0,0,2.3204116,-279.33469,-141.67448)"><rect
         style="fill:#1b2a45;fill-opacity:1;stroke-width:0.43085;stroke-linecap:round"
         id="rect5"
         width="29.313728"
         height="2.6282737"
         x="147.20131"
         y="78.458984"
         rx="0"
         ry="0" /><rect
         style="fill:#1b2a45;fill-opacity:1;stroke-width:0.43085;stroke-linecap:round"
         id="rect6"
         width="43.657921"
         height="2.6282737"
         x="147.20131"
         y="85.691391"
         rx="0"
         ry="0" /><rect
         style="fill:#1b2a45;fill-opacity:1;stroke-width:0.43085;stroke-linecap:round"
         id="rect7"
         width="43.657921"
         height="2.6282737"
         x="147.20131"
         y="92.923798"
         rx="0"
         ry="0" /><rect
         style="fill:#1b2a45;fill-opacity:1;stroke-width:0.43085;stroke-linecap:round"
         id="rect8"
         width="43.657921"
         height="2.6282737"
         x="147.20131"
         y="100.1562"
         rx="0"
         ry="0" /><rect
         style="fill:#1b2a45;fill-opacity:1;stroke-width:0.43085;stroke-linecap:round"
         id="rect9"
         width="43.657921"
         height="2.6282737"
         x="147.20131"
         y="107.3886"
         rx="0"
         ry="0" /><rect
         style="fill:#1b2a45;fill-opacity:1;stroke-width:0.43085;stroke-linecap:round"
         id="rect10"
         width="24.197519"
         height="2.6282737"
         x="147.20131"
         y="114.62101"
         rx="0"
         ry="0" /><rect
         style="fill:#1b2a45;fill-opacity:1;stroke-width:0.43085;stroke-linecap:round"
         id="rect11"
         width="16.890549"
         height="2.6282737"
         x="147.20131"
         y="121.85342"
         rx="0"
         ry="0" /><rect
         style="fill:#1b2a45;fill-opacity:1;stroke-width:0.430849;stroke-linecap:round"
         id="rect12"
         width="8.4452744"
         height="2.6282737"
         x="147.20131"
         y="129.08582"
         rx="0"
         ry="0" /></g><path
       style="fill:#7dd684;fill-opacity:1;stroke:#10192c;stroke-width:3;stroke-linecap:round;stroke-linejoin:round;stroke-opacity:1;stroke-dasharray:none"
       d="m 183.58599,216.54693 h -56.17043 v -13.58144 l -21.20455,19.29083 21.20455,20.24242 v -12.8029 l 45.17868,0.0865 z"
       id="path12"
       sodipodi:nodetypes="cccccccc" /><path
       style="fill:#7dd684;fill-opacity:1;stroke:#10192c;stroke-width:3;stroke-linecap:round;stroke-linejoin:round;stroke-opacity:1;stroke-dasharray:none"
       d="m 137.44251,140.5973 h 56.17044 v 13.58144 l 21.20455,-19.29083 -21.20455,-20.24242 v 12.8029 l -45.17869,-0.0866 z"
       id="path13"
       sodipodi:nodetypes="cccccccc" /><path
       style="font-weight:900;font-size:30.3988px;line-height:38.6894px;font-family:Roboto;-inkscape-font-specification:'Roboto Heavy';letter-spacing:0px;white-space:pre;fill:#7dd684;stroke:#10192c;stroke-width:3;stroke-linecap:round;stroke-linejoin:round;stroke-dasharray:none"
       d="m 138.32575,174.56783 q 0,7.35929 -2.71375,13.02561 -2.71375,5.66632 -7.72906,8.74133 -4.98091,3.04046 -11.37026,3.04046 -6.38934,0 -11.33593,-2.93681 -4.94657,-2.97135 -7.729035,-8.46493 -2.748095,-5.49356 -2.885494,-12.611 v -2.83315 q 0,-7.39386 2.679384,-13.02561 2.713751,-5.66632 7.729035,-8.74133 5.04965,-3.07503 11.47333,-3.07503 6.355,0 11.33594,3.04046 4.98092,3.04047 7.72903,8.67224 2.78244,5.59721 2.81681,12.85285 z m -12.26341,-2.1076 q 0,-7.49749 -2.50764,-11.36718 -2.4733,-3.90424 -7.11073,-3.90424 -9.06872,0 -9.584,13.6821 l -0.0343,3.69692 q 0,7.39384 2.43893,11.36718 2.43893,3.97332 7.24813,3.97332 4.56872,0 7.04201,-3.90423 2.47328,-3.90421 2.50764,-11.22898 z m 49.98111,6.18458 h -19.44283 v 20.03939 h -12.05729 v -50.3058 h 33.45814 v 9.36324 h -21.40085 v 11.57447 h 19.44283 z"
       id="text13"
       aria-label="OF" /><path
       style="font-weight:900;font-size:30.3988px;line-height:38.6894px;font-family:Roboto;-inkscape-font-specification:'Roboto Heavy';letter-spacing:0px;white-space:pre;fill:#7dd684;stroke:#10192c;stroke-width:3;stroke-linecap:round;stroke-linejoin:round;stroke-dasharray:none"
       d="m 198.85554,208.91527 8.1756,-16.72254 h 13.77487 l -13.98096,24.94562 14.35883,25.36021 h -13.91226 l -8.41608,-17.03349 -8.41605,17.03349 h -13.87792 l 14.32448,-25.36021 -13.94663,-24.94562 h 13.74052 z"
       id="text14"
       aria-label="X" /></g></svg>
