<?xml version="1.0" encoding="UTF-8" standalone="no"?>
<!-- Created with Inkscape (http://www.inkscape.org/) -->

<svg
   width="256"
   height="256"
   viewBox="0 0 256 256"
   version="1.1"
   id="svg1"
   xml:space="preserve"
   inkscape:version="1.4.2 (ebf0e940d0, 2025-05-08)"
   sodipodi:docname="icon.svg"
   xmlns:inkscape="http://www.inkscape.org/namespaces/inkscape"
   xmlns:sodipodi="http://sodipodi.sourceforge.net/DTD/sodipodi-0.dtd"
   xmlns="http://www.w3.org/2000/svg"
   xmlns:svg="http://www.w3.org/2000/svg"><sodipodi:namedview
     id="namedview1"
     pagecolor="#ffffff"
     bordercolor="#000000"
     borderopacity="0.25"
     inkscape:showpageshadow="2"
     inkscape:pageopacity="0.0"
     inkscape:pagecheckerboard="0"
     inkscape:deskcolor="#d1d1d1"
     inkscape:document-units="px"
     showguides="true"
     inkscape:zoom="0.81735661"
     inkscape:cx="-92.982671"
     inkscape:cy="66.066634"
     inkscape:window-width="1920"
     inkscape:window-height="1011"
     inkscape:window-x="0"
     inkscape:window-y="0"
     inkscape:window-maximized="1"
     inkscape:current-layer="layer1" /><defs
     id="defs1" /><g
     inkscape:label="Camada 1"
     inkscape:groupmode="layer"
     id="layer1"><path
       id="rect4-8"
       style="fill:#eaeff5;fill-opacity:1;stroke-width:0.999994;stroke-linecap:round"
       d="m 56.070799,16.71047 c -5.596529,0 -10.104588,4.500481 -10.104588,10.094217 V 229.19532 c 0,5.59375 4.508059,10.09421 10.104588,10.09421 H 199.92921 c 5.59655,0 10.10458,-4.50046 10.10458,-10.09421 V 48.911768 L 177.50716,16.71047 Z m 145.047511,0.06929 c 1.56115,0.18146 3.01286,0.713279 4.27112,1.518926 -1.25796,-0.806081 -2.70999,-1.337343 -4.27112,-1.518926 z" /><path
       id="rect3-7"
       style="fill:#bbc4d3;fill-opacity:1;stroke-width:0.999994;stroke-linecap:round"
       d="M 210.03379,48.911768 177.50716,16.71047 v 22.107079 c 0,5.593737 4.50803,10.094218 10.10458,10.094218 z" /><path
       id="path16"
       style="fill:#f29c1f;fill-opacity:1;stroke-width:0.999994;stroke-linecap:round"
       d="m 45.966587,171.71093 v 57.48438 c 0,5.59375 4.506986,10.09375 10.103515,10.09375 H 199.92948 c 5.59655,0 10.10351,-4.5 10.10351,-10.09375 v -57.48438 z" /><path
       d="m 111.66144,206.30353 q 0,5.70503 -2.11595,10.09763 -2.11595,4.39261 -6.02644,6.7764 -3.883701,2.35701 -8.865561,2.35701 -4.98186,0 -8.838781,-2.27666 -3.856922,-2.30344 -6.026441,-6.56212 -2.142734,-4.25869 -2.249871,-9.77623 v -2.1963 q 0,-5.73181 2.089166,-10.09764 2.115951,-4.3926 6.026441,-6.77639 3.937276,-2.3838 8.945916,-2.3838 4.95507,0 8.838781,2.35701 3.88371,2.35701 6.02644,6.72283 2.16952,4.33904 2.1963,9.96372 z m -9.56195,-1.63384 q 0,-5.81217 -1.95524,-8.81199 -1.928471,-3.02662 -5.544331,-3.02662 -7.071024,0 -7.472786,10.60654 l -0.02678,2.86591 q 0,5.73181 1.901676,8.81199 1.90167,3.08018 5.65146,3.08018 3.56229,0 5.490761,-3.02661 1.92846,-3.02661 1.95524,-8.70486 z m 38.97098,4.79437 h -15.15984 v 15.53482 h -9.40125 v -38.99776 h 26.08779 v 7.25851 h -16.68654 v 8.9727 h 15.15984 z m 19.981,-10.4994 6.37463,-12.96354 h 10.74046 l -10.90116,19.33818 11.19578,19.65958 h -10.84759 l -6.56212,-13.2046 -6.56213,13.2046 h -10.82081 l 11.16901,-19.65958 -10.87438,-19.33818 h 10.71367 z"
       id="text17"
       style="font-weight:900;font-size:54.854px;line-height:69.8142px;font-family:Roboto;-inkscape-font-specification:'Roboto Heavy';letter-spacing:0px;white-space:pre;fill:#ffffff;stroke-width:2.99999;stroke-linecap:round;stroke-linejoin:round"
       aria-label="OFX" /><path
       style="fill:#f29c1f;stroke-width:1;fill-opacity:1"
       d="m 153.79615,140.17584 c -3.07964,-1.15 -4.56702,-4.58728 -3.23604,-7.47834 0.40039,-0.8697 1.28416,-1.82143 7.10764,-7.65423 l 6.65041,-6.66104 -32.60547,-0.043 -32.605472,-0.0431 -0.917985,-0.43057 c -1.310175,-0.61452 -2.058803,-1.34139 -2.678945,-2.60108 -0.475148,-0.96516 -0.541364,-1.26213 -0.541246,-2.42743 1.06e-4,-1.08447 0.0788,-1.49456 0.429446,-2.23817 0.791975,-1.67952 2.267214,-2.80085 4.140399,-3.14712 0.599823,-0.11088 14.152643,-0.15291 40.047993,-0.12419 l 39.14136,0.0435 0.94702,0.38254 c 2.70482,1.09263 4.12026,4.31253 3.10629,7.06642 -0.35116,0.95376 -0.8331,1.46179 -12.14143,12.79914 -8.82027,8.84289 -11.98348,11.91421 -12.60341,12.23733 -1.00313,0.52283 -3.2438,0.69157 -4.24056,0.31936 z M 77.36153,96.184775 c -2.532542,-0.49771 -4.302002,-2.53226 -4.451713,-5.118649 -0.05765,-0.995945 4.23e-4,-1.437934 0.29382,-2.234686 0.351171,-0.953774 0.833092,-1.461802 12.141437,-12.799145 8.838967,-8.861632 11.982169,-11.913266 12.603416,-12.236265 1.182282,-0.614682 3.10825,-0.710217 4.41096,-0.21879 1.30017,0.49047 2.33289,1.452573 2.98835,2.784 0.46891,0.952498 0.54139,1.26897 0.5382,2.350121 -0.007,2.325061 -10e-5,2.316249 -7.568564,9.896824 l -6.650403,6.661041 32.605467,0.04302 32.60549,0.04302 0.91796,0.430568 c 1.31017,0.614523 2.0588,1.341387 2.67895,2.601075 0.47515,0.965166 0.54137,1.262136 0.54126,2.42744 -1.2e-4,1.084466 -0.0788,1.494546 -0.42945,2.238166 -0.78704,1.66902 -2.25385,2.79072 -4.10957,3.14265 -1.10173,0.20894 -78.050993,0.19884 -79.11561,-0.0104 z"
       id="path17" /></g></svg>
